<svg width="697" height="88" viewBox="0 0 697 88" fill="none" xmlns="http://www.w3.org/2000/svg">
<rect width="697" height="88" fill="white"/>
<rect x="82" y="29" width="28" height="26" fill="#09D3FF"/>
<rect x="82.5" y="29.5" width="27" height="25" stroke="black" stroke-opacity="0.8"/>
<path d="M119.057 37.2727H120.318L123.284 44.517H123.386L126.352 37.2727H127.614V46H126.625V39.3693H126.54L123.812 46H122.858L120.131 39.3693H120.045V46H119.057V37.2727ZM132.341 46.1364C131.71 46.1364 131.166 45.9972 130.708 45.7188C130.254 45.4375 129.903 45.0455 129.656 44.5426C129.412 44.0369 129.289 43.4489 129.289 42.7784C129.289 42.108 129.412 41.517 129.656 41.0057C129.903 40.4915 130.247 40.0909 130.687 39.804C131.13 39.5142 131.647 39.3693 132.238 39.3693C132.579 39.3693 132.916 39.4261 133.248 39.5398C133.581 39.6534 133.883 39.8381 134.156 40.0938C134.429 40.3466 134.646 40.6818 134.808 41.0994C134.97 41.517 135.051 42.0312 135.051 42.642V43.0682H130.005V42.1989H134.028C134.028 41.8295 133.954 41.5 133.806 41.2102C133.662 40.9205 133.454 40.6918 133.184 40.5241C132.917 40.3565 132.602 40.2727 132.238 40.2727C131.838 40.2727 131.491 40.3722 131.199 40.571C130.909 40.767 130.686 41.0227 130.529 41.3381C130.373 41.6534 130.295 41.9915 130.295 42.3523V42.9318C130.295 43.4261 130.38 43.8452 130.551 44.1889C130.724 44.5298 130.964 44.7898 131.271 44.9688C131.578 45.1449 131.934 45.233 132.341 45.233C132.605 45.233 132.843 45.196 133.056 45.1222C133.272 45.0455 133.458 44.9318 133.615 44.7812C133.771 44.6278 133.892 44.4375 133.977 44.2102L134.949 44.483C134.846 44.8125 134.674 45.1023 134.433 45.3523C134.191 45.5994 133.893 45.7926 133.538 45.9318C133.183 46.0682 132.784 46.1364 132.341 46.1364ZM139.052 46.1364C138.507 46.1364 138.025 45.9986 137.608 45.723C137.19 45.4446 136.863 45.0526 136.627 44.5469C136.392 44.0384 136.274 43.4375 136.274 42.7443C136.274 42.0568 136.392 41.4602 136.627 40.9545C136.863 40.4489 137.191 40.0582 137.612 39.7827C138.032 39.5071 138.518 39.3693 139.069 39.3693C139.495 39.3693 139.832 39.4403 140.079 39.5824C140.329 39.7216 140.52 39.8807 140.65 40.0597C140.784 40.2358 140.887 40.3807 140.961 40.4943H141.047V37.2727H142.052V46H141.081V44.9943H140.961C140.887 45.1136 140.782 45.2642 140.646 45.446C140.51 45.625 140.315 45.7855 140.062 45.9276C139.809 46.0668 139.473 46.1364 139.052 46.1364ZM139.189 45.233C139.592 45.233 139.933 45.1278 140.211 44.9176C140.49 44.7045 140.701 44.4105 140.846 44.0355C140.991 43.6577 141.064 43.2216 141.064 42.7273C141.064 42.2386 140.993 41.8111 140.85 41.4446C140.708 41.0753 140.498 40.7884 140.22 40.5838C139.941 40.3764 139.598 40.2727 139.189 40.2727C138.762 40.2727 138.407 40.3821 138.123 40.6009C137.842 40.8168 137.63 41.1108 137.488 41.483C137.349 41.8523 137.279 42.267 137.279 42.7273C137.279 43.1932 137.35 43.6165 137.493 43.9972C137.637 44.375 137.85 44.6761 138.132 44.9006C138.416 45.1222 138.768 45.233 139.189 45.233ZM144.034 46V39.4545H145.039V46H144.034ZM144.545 38.3636C144.349 38.3636 144.18 38.2969 144.038 38.1634C143.899 38.0298 143.829 37.8693 143.829 37.6818C143.829 37.4943 143.899 37.3338 144.038 37.2003C144.18 37.0668 144.349 37 144.545 37C144.741 37 144.909 37.0668 145.048 37.2003C145.19 37.3338 145.261 37.4943 145.261 37.6818C145.261 37.8693 145.19 38.0298 145.048 38.1634C144.909 38.2969 144.741 38.3636 144.545 38.3636ZM148.808 46.1534C148.393 46.1534 148.016 46.0753 147.678 45.919C147.34 45.7599 147.072 45.5312 146.873 45.233C146.674 44.9318 146.575 44.5682 146.575 44.142C146.575 43.767 146.648 43.4631 146.796 43.2301C146.944 42.9943 147.141 42.8097 147.388 42.6761C147.636 42.5426 147.908 42.4432 148.207 42.3778C148.508 42.3097 148.81 42.2557 149.114 42.2159C149.512 42.1648 149.835 42.1264 150.082 42.1009C150.332 42.0724 150.513 42.0256 150.627 41.9602C150.744 41.8949 150.802 41.7812 150.802 41.6193V41.5852C150.802 41.1648 150.687 40.8381 150.457 40.6051C150.229 40.3722 149.884 40.2557 149.421 40.2557C148.941 40.2557 148.565 40.3608 148.292 40.571C148.019 40.7812 147.827 41.0057 147.717 41.2443L146.762 40.9034C146.933 40.5057 147.16 40.196 147.444 39.9744C147.731 39.75 148.043 39.5937 148.381 39.5057C148.722 39.4148 149.058 39.3693 149.387 39.3693C149.597 39.3693 149.839 39.3949 150.112 39.446C150.387 39.4943 150.653 39.5952 150.908 39.7486C151.167 39.902 151.381 40.1335 151.552 40.4432C151.722 40.7528 151.808 41.1676 151.808 41.6875V46H150.802V45.1136H150.751C150.683 45.2557 150.569 45.4077 150.41 45.5696C150.251 45.7315 150.039 45.8693 149.775 45.983C149.511 46.0966 149.188 46.1534 148.808 46.1534ZM148.961 45.25C149.359 45.25 149.694 45.1719 149.967 45.0156C150.242 44.8594 150.45 44.6577 150.589 44.4105C150.731 44.1634 150.802 43.9034 150.802 43.6307V42.7102C150.759 42.7614 150.665 42.8082 150.521 42.8509C150.379 42.8906 150.214 42.9261 150.026 42.9574C149.842 42.9858 149.661 43.0114 149.485 43.0341C149.312 43.054 149.171 43.071 149.063 43.0852C148.802 43.1193 148.558 43.1747 148.33 43.2514C148.106 43.3253 147.924 43.4375 147.785 43.5881C147.648 43.7358 147.58 43.9375 147.58 44.1932C147.58 44.5426 147.71 44.8068 147.968 44.9858C148.229 45.1619 148.56 45.25 148.961 45.25ZM154.649 42.0625V46H153.643V39.4545H154.615V40.4773H154.7C154.853 40.1449 155.086 39.8778 155.399 39.6761C155.711 39.4716 156.115 39.3693 156.609 39.3693C157.052 39.3693 157.44 39.4602 157.772 39.642C158.105 39.821 158.363 40.0938 158.548 40.4602C158.733 40.8239 158.825 41.2841 158.825 41.8409V46H157.819V41.9091C157.819 41.3949 157.686 40.9943 157.419 40.7074C157.152 40.4176 156.785 40.2727 156.319 40.2727C155.998 40.2727 155.711 40.3423 155.458 40.4815C155.208 40.6207 155.011 40.8239 154.866 41.0909C154.721 41.358 154.649 41.6818 154.649 42.0625Z" fill="black"/>
<path d="M224.477 43.4659V37.8409H225.432V43.4659H224.477ZM222.142 41.1307V40.1761H227.767V41.1307H222.142ZM229.403 45V44.233L232.284 41.0795C232.622 40.7102 232.901 40.3892 233.119 40.1165C233.338 39.8409 233.5 39.5824 233.605 39.3409C233.713 39.0966 233.767 38.8409 233.767 38.5739C233.767 38.267 233.693 38.0014 233.545 37.777C233.401 37.5526 233.202 37.3793 232.949 37.2571C232.696 37.1349 232.412 37.0739 232.097 37.0739C231.761 37.0739 231.469 37.1435 231.219 37.2827C230.972 37.419 230.78 37.6108 230.643 37.858C230.51 38.1051 230.443 38.3949 230.443 38.7273H229.438C229.438 38.2159 229.555 37.767 229.791 37.3807C230.027 36.9943 230.348 36.6932 230.754 36.4773C231.163 36.2614 231.622 36.1534 232.131 36.1534C232.642 36.1534 233.095 36.2614 233.49 36.4773C233.885 36.6932 234.195 36.9844 234.419 37.3509C234.643 37.7173 234.756 38.125 234.756 38.5739C234.756 38.8949 234.697 39.2088 234.581 39.5156C234.467 39.8196 234.268 40.1591 233.984 40.5341C233.703 40.9062 233.312 41.3608 232.812 41.8977L230.852 43.9943V44.0625H234.909V45H229.403ZM241.595 38.4545C241.544 38.0227 241.337 37.6875 240.973 37.4489C240.609 37.2102 240.163 37.0909 239.635 37.0909C239.249 37.0909 238.911 37.1534 238.621 37.2784C238.334 37.4034 238.109 37.5753 237.947 37.794C237.788 38.0128 237.709 38.2614 237.709 38.5398C237.709 38.7727 237.764 38.973 237.875 39.1406C237.989 39.3054 238.134 39.4432 238.31 39.554C238.486 39.6619 238.67 39.7514 238.864 39.8224C239.057 39.8906 239.234 39.946 239.396 39.9886L240.283 40.2273C240.51 40.2869 240.763 40.3693 241.041 40.4744C241.322 40.5795 241.591 40.723 241.847 40.9048C242.105 41.0838 242.318 41.3139 242.486 41.5952C242.653 41.8764 242.737 42.2216 242.737 42.6307C242.737 43.1023 242.614 43.5284 242.366 43.9091C242.122 44.2898 241.764 44.5923 241.293 44.8168C240.824 45.0412 240.254 45.1534 239.584 45.1534C238.959 45.1534 238.418 45.0526 237.96 44.8509C237.506 44.6491 237.148 44.3679 236.886 44.0071C236.628 43.6463 236.482 43.2273 236.447 42.75H237.538C237.567 43.0795 237.678 43.3523 237.871 43.5682C238.067 43.7812 238.314 43.9403 238.612 44.0455C238.913 44.1477 239.237 44.1989 239.584 44.1989C239.987 44.1989 240.349 44.1335 240.67 44.0028C240.991 43.8693 241.246 43.6847 241.433 43.4489C241.621 43.2102 241.714 42.9318 241.714 42.6136C241.714 42.3239 241.634 42.0881 241.472 41.9062C241.31 41.7244 241.097 41.5767 240.832 41.4631C240.568 41.3494 240.283 41.25 239.976 41.1648L238.902 40.858C238.22 40.6619 237.68 40.3821 237.283 40.0185C236.885 39.6548 236.686 39.179 236.686 38.5909C236.686 38.1023 236.818 37.6761 237.082 37.3125C237.349 36.946 237.707 36.6619 238.156 36.4602C238.608 36.2557 239.112 36.1534 239.669 36.1534C240.232 36.1534 240.732 36.2543 241.169 36.456C241.607 36.6548 241.953 36.9276 242.209 37.2741C242.467 37.6207 242.604 38.0142 242.618 38.4545H241.595ZM247.168 45H244.475V36.2727H247.287C248.134 36.2727 248.858 36.4474 249.461 36.7969C250.063 37.1435 250.525 37.642 250.846 38.2926C251.167 38.9403 251.327 39.7159 251.327 40.6193C251.327 41.5284 251.165 42.3111 250.841 42.9673C250.517 43.6207 250.046 44.1236 249.426 44.4759C248.807 44.8253 248.054 45 247.168 45ZM245.532 44.0625H247.1C247.821 44.0625 248.419 43.9233 248.894 43.6449C249.368 43.3665 249.722 42.9702 249.955 42.456C250.188 41.9418 250.304 41.3295 250.304 40.6193C250.304 39.9148 250.189 39.3082 249.959 38.7997C249.729 38.2884 249.385 37.8963 248.928 37.6236C248.471 37.348 247.901 37.2102 247.219 37.2102H245.532V44.0625ZM258.81 45.1193C258.236 45.1193 257.742 45.0142 257.327 44.804C256.912 44.5937 256.593 44.3054 256.368 43.9389C256.144 43.5724 256.032 43.1534 256.032 42.6818C256.032 42.3182 256.108 41.9957 256.262 41.7145C256.418 41.4304 256.632 41.1676 256.905 40.9261C257.181 40.6818 257.498 40.4375 257.855 40.1932L259.117 39.2557C259.364 39.0937 259.561 38.9205 259.709 38.7358C259.86 38.5511 259.935 38.3097 259.935 38.0114C259.935 37.7898 259.837 37.5753 259.641 37.3679C259.448 37.1605 259.194 37.0568 258.878 37.0568C258.657 37.0568 258.461 37.1136 258.29 37.2273C258.123 37.3381 257.99 37.4801 257.894 37.6534C257.8 37.8239 257.753 38 257.753 38.1818C257.753 38.3864 257.809 38.5938 257.919 38.804C258.033 39.0114 258.176 39.2244 258.35 39.4432C258.526 39.6591 258.708 39.8807 258.895 40.108L262.901 45H261.691L258.384 41.0114C258.077 40.642 257.799 40.3068 257.549 40.0057C257.299 39.7045 257.1 39.4077 256.952 39.1151C256.804 38.8224 256.73 38.5057 256.73 38.1648C256.73 37.7727 256.817 37.429 256.99 37.1335C257.167 36.8352 257.412 36.6037 257.728 36.4389C258.046 36.2713 258.418 36.1875 258.844 36.1875C259.282 36.1875 259.658 36.2727 259.973 36.4432C260.289 36.6108 260.532 36.8338 260.702 37.1122C260.873 37.3878 260.958 37.6875 260.958 38.0114C260.958 38.429 260.854 38.7912 260.647 39.098C260.439 39.4048 260.157 39.6903 259.799 39.9545L258.06 41.25C257.668 41.5398 257.402 41.821 257.263 42.0938C257.124 42.3665 257.054 42.5625 257.054 42.6818C257.054 42.9545 257.125 43.2088 257.267 43.4446C257.409 43.6804 257.61 43.8707 257.868 44.0156C258.127 44.1605 258.429 44.233 258.776 44.233C259.105 44.233 259.426 44.1634 259.739 44.0241C260.051 43.8821 260.334 43.6776 260.587 43.4105C260.843 43.1435 261.044 42.8224 261.192 42.4474C261.343 42.0724 261.418 41.6506 261.418 41.1818H262.39C262.39 41.7614 262.323 42.2344 262.189 42.6009C262.056 42.9673 261.905 43.2543 261.738 43.4616C261.57 43.669 261.435 43.8239 261.333 43.9261C261.299 43.9687 261.267 44.0114 261.239 44.054C261.211 44.0966 261.179 44.1392 261.145 44.1818C260.864 44.4972 260.509 44.733 260.08 44.8892C259.651 45.0426 259.228 45.1193 258.81 45.1193ZM271.139 40.1676V41.1051H267.321V40.1676H271.139ZM272.482 45V44.233L275.362 41.0795C275.7 40.7102 275.979 40.3892 276.197 40.1165C276.416 39.8409 276.578 39.5824 276.683 39.3409C276.791 39.0966 276.845 38.8409 276.845 38.5739C276.845 38.267 276.771 38.0014 276.624 37.777C276.479 37.5526 276.28 37.3793 276.027 37.2571C275.774 37.1349 275.49 37.0739 275.175 37.0739C274.839 37.0739 274.547 37.1435 274.297 37.2827C274.05 37.419 273.858 37.6108 273.722 37.858C273.588 38.1051 273.521 38.3949 273.521 38.7273H272.516C272.516 38.2159 272.634 37.767 272.869 37.3807C273.105 36.9943 273.426 36.6932 273.832 36.4773C274.241 36.2614 274.7 36.1534 275.209 36.1534C275.72 36.1534 276.173 36.2614 276.568 36.4773C276.963 36.6932 277.273 36.9844 277.497 37.3509C277.722 37.7173 277.834 38.125 277.834 38.5739C277.834 38.8949 277.776 39.2088 277.659 39.5156C277.545 39.8196 277.347 40.1591 277.062 40.5341C276.781 40.9062 276.391 41.3608 275.891 41.8977L273.93 43.9943V44.0625H277.987V45H272.482ZM284.673 38.4545C284.622 38.0227 284.415 37.6875 284.051 37.4489C283.688 37.2102 283.241 37.0909 282.713 37.0909C282.327 37.0909 281.989 37.1534 281.699 37.2784C281.412 37.4034 281.188 37.5753 281.026 37.794C280.866 38.0128 280.787 38.2614 280.787 38.5398C280.787 38.7727 280.842 38.973 280.953 39.1406C281.067 39.3054 281.212 39.4432 281.388 39.554C281.564 39.6619 281.749 39.7514 281.942 39.8224C282.135 39.8906 282.312 39.946 282.474 39.9886L283.361 40.2273C283.588 40.2869 283.841 40.3693 284.119 40.4744C284.401 40.5795 284.669 40.723 284.925 40.9048C285.183 41.0838 285.396 41.3139 285.564 41.5952C285.732 41.8764 285.815 42.2216 285.815 42.6307C285.815 43.1023 285.692 43.5284 285.445 43.9091C285.2 44.2898 284.842 44.5923 284.371 44.8168C283.902 45.0412 283.332 45.1534 282.662 45.1534C282.037 45.1534 281.496 45.0526 281.038 44.8509C280.584 44.6491 280.226 44.3679 279.964 44.0071C279.706 43.6463 279.56 43.2273 279.526 42.75H280.616C280.645 43.0795 280.756 43.3523 280.949 43.5682C281.145 43.7812 281.392 43.9403 281.69 44.0455C281.991 44.1477 282.315 44.1989 282.662 44.1989C283.065 44.1989 283.428 44.1335 283.749 44.0028C284.07 43.8693 284.324 43.6847 284.511 43.4489C284.699 43.2102 284.793 42.9318 284.793 42.6136C284.793 42.3239 284.712 42.0881 284.55 41.9062C284.388 41.7244 284.175 41.5767 283.911 41.4631C283.646 41.3494 283.361 41.25 283.054 41.1648L281.98 40.858C281.298 40.6619 280.759 40.3821 280.361 40.0185C279.963 39.6548 279.764 39.179 279.764 38.5909C279.764 38.1023 279.896 37.6761 280.161 37.3125C280.428 36.946 280.786 36.6619 281.234 36.4602C281.686 36.2557 282.19 36.1534 282.747 36.1534C283.31 36.1534 283.81 36.2543 284.247 36.456C284.685 36.6548 285.031 36.9276 285.287 37.2741C285.545 37.6207 285.682 38.0142 285.696 38.4545H284.673ZM290.246 45H287.553V36.2727H290.365C291.212 36.2727 291.936 36.4474 292.539 36.7969C293.141 37.1435 293.603 37.642 293.924 38.2926C294.245 38.9403 294.405 39.7159 294.405 40.6193C294.405 41.5284 294.243 42.3111 293.919 42.9673C293.596 43.6207 293.124 44.1236 292.505 44.4759C291.885 44.8253 291.132 45 290.246 45ZM288.61 44.0625H290.178C290.9 44.0625 291.498 43.9233 291.972 43.6449C292.446 43.3665 292.8 42.9702 293.033 42.456C293.266 41.9418 293.382 41.3295 293.382 40.6193C293.382 39.9148 293.267 39.3082 293.037 38.7997C292.807 38.2884 292.463 37.8963 292.006 37.6236C291.549 37.348 290.979 37.2102 290.297 37.2102H288.61V44.0625Z" fill="black"/>
<path d="M360.477 42.4659V36.8409H361.432V42.4659H360.477ZM358.142 40.1307V39.1761H363.767V40.1307H358.142ZM368.622 44.1193C368.059 44.1193 367.558 44.0227 367.118 43.8295C366.68 43.6364 366.332 43.3679 366.074 43.0241C365.818 42.6776 365.679 42.2756 365.656 41.8182H366.73C366.752 42.0994 366.849 42.3423 367.02 42.5469C367.19 42.7486 367.413 42.9048 367.689 43.0156C367.964 43.1264 368.27 43.1818 368.605 43.1818C368.98 43.1818 369.312 43.1165 369.602 42.9858C369.892 42.8551 370.119 42.6733 370.284 42.4403C370.449 42.2074 370.531 41.9375 370.531 41.6307C370.531 41.3097 370.451 41.027 370.292 40.7827C370.133 40.5355 369.9 40.3423 369.593 40.2031C369.287 40.0639 368.912 39.9943 368.468 39.9943H367.77V39.0568H368.468C368.815 39.0568 369.119 38.9943 369.38 38.8693C369.645 38.7443 369.85 38.5682 369.998 38.3409C370.149 38.1136 370.224 37.8466 370.224 37.5398C370.224 37.2443 370.159 36.9872 370.028 36.7685C369.897 36.5497 369.713 36.3793 369.474 36.2571C369.238 36.1349 368.96 36.0739 368.639 36.0739C368.338 36.0739 368.054 36.1293 367.787 36.2401C367.522 36.348 367.306 36.5057 367.139 36.7131C366.971 36.9176 366.88 37.1648 366.866 37.4545H365.843C365.86 36.9972 365.998 36.5966 366.257 36.2528C366.515 35.9062 366.853 35.6364 367.271 35.4432C367.691 35.25 368.153 35.1534 368.656 35.1534C369.196 35.1534 369.659 35.2628 370.045 35.4815C370.431 35.6974 370.728 35.983 370.936 36.3381C371.143 36.6932 371.247 37.0767 371.247 37.4886C371.247 37.9801 371.118 38.3991 370.859 38.7457C370.603 39.0923 370.255 39.3324 369.815 39.4659V39.5341C370.366 39.625 370.797 39.8594 371.106 40.2372C371.416 40.6122 371.571 41.0767 371.571 41.6307C371.571 42.1051 371.441 42.5312 371.183 42.9091C370.927 43.2841 370.578 43.5795 370.135 43.7955C369.691 44.0114 369.187 44.1193 368.622 44.1193ZM378.24 37.4545C378.189 37.0227 377.981 36.6875 377.618 36.4489C377.254 36.2102 376.808 36.0909 376.279 36.0909C375.893 36.0909 375.555 36.1534 375.265 36.2784C374.978 36.4034 374.754 36.5753 374.592 36.794C374.433 37.0128 374.353 37.2614 374.353 37.5398C374.353 37.7727 374.409 37.973 374.52 38.1406C374.633 38.3054 374.778 38.4432 374.954 38.554C375.13 38.6619 375.315 38.7514 375.508 38.8224C375.701 38.8906 375.879 38.946 376.041 38.9886L376.927 39.2273C377.154 39.2869 377.407 39.3693 377.686 39.4744C377.967 39.5795 378.235 39.723 378.491 39.9048C378.75 40.0838 378.963 40.3139 379.13 40.5952C379.298 40.8764 379.382 41.2216 379.382 41.6307C379.382 42.1023 379.258 42.5284 379.011 42.9091C378.767 43.2898 378.409 43.5923 377.937 43.8168C377.468 44.0412 376.899 44.1534 376.228 44.1534C375.603 44.1534 375.062 44.0526 374.605 43.8509C374.15 43.6491 373.792 43.3679 373.531 43.0071C373.272 42.6463 373.126 42.2273 373.092 41.75H374.183C374.211 42.0795 374.322 42.3523 374.515 42.5682C374.711 42.7812 374.958 42.9403 375.257 43.0455C375.558 43.1477 375.882 43.1989 376.228 43.1989C376.632 43.1989 376.994 43.1335 377.315 43.0028C377.636 42.8693 377.89 42.6847 378.078 42.4489C378.265 42.2102 378.359 41.9318 378.359 41.6136C378.359 41.3239 378.278 41.0881 378.116 40.9062C377.954 40.7244 377.741 40.5767 377.477 40.4631C377.213 40.3494 376.927 40.25 376.62 40.1648L375.547 39.858C374.865 39.6619 374.325 39.3821 373.927 39.0185C373.529 38.6548 373.331 38.179 373.331 37.5909C373.331 37.1023 373.463 36.6761 373.727 36.3125C373.994 35.946 374.352 35.6619 374.801 35.4602C375.252 35.2557 375.757 35.1534 376.314 35.1534C376.876 35.1534 377.376 35.2543 377.814 35.456C378.251 35.6548 378.598 35.9276 378.853 36.2741C379.112 36.6207 379.248 37.0142 379.262 37.4545H378.24ZM383.812 44H381.119V35.2727H383.932C384.778 35.2727 385.503 35.4474 386.105 35.7969C386.707 36.1435 387.169 36.642 387.49 37.2926C387.811 37.9403 387.972 38.7159 387.972 39.6193C387.972 40.5284 387.81 41.3111 387.486 41.9673C387.162 42.6207 386.69 43.1236 386.071 43.4759C385.452 43.8253 384.699 44 383.812 44ZM382.176 43.0625H383.744C384.466 43.0625 385.064 42.9233 385.538 42.6449C386.013 42.3665 386.366 41.9702 386.599 41.456C386.832 40.9418 386.949 40.3295 386.949 39.6193C386.949 38.9148 386.834 38.3082 386.604 37.7997C386.374 37.2884 386.03 36.8963 385.572 36.6236C385.115 36.348 384.545 36.2102 383.864 36.2102H382.176V43.0625ZM395.455 44.1193C394.881 44.1193 394.386 44.0142 393.972 43.804C393.557 43.5937 393.237 43.3054 393.013 42.9389C392.788 42.5724 392.676 42.1534 392.676 41.6818C392.676 41.3182 392.753 40.9957 392.906 40.7145C393.062 40.4304 393.277 40.1676 393.55 39.9261C393.825 39.6818 394.142 39.4375 394.5 39.1932L395.761 38.2557C396.009 38.0937 396.206 37.9205 396.354 37.7358C396.504 37.5511 396.58 37.3097 396.58 37.0114C396.58 36.7898 396.482 36.5753 396.286 36.3679C396.092 36.1605 395.838 36.0568 395.523 36.0568C395.301 36.0568 395.105 36.1136 394.935 36.2273C394.767 36.3381 394.635 36.4801 394.538 36.6534C394.445 36.8239 394.398 37 394.398 37.1818C394.398 37.3864 394.453 37.5938 394.564 37.804C394.678 38.0114 394.821 38.2244 394.994 38.4432C395.17 38.6591 395.352 38.8807 395.54 39.108L399.545 44H398.335L395.028 40.0114C394.722 39.642 394.443 39.3068 394.193 39.0057C393.943 38.7045 393.744 38.4077 393.597 38.1151C393.449 37.8224 393.375 37.5057 393.375 37.1648C393.375 36.7727 393.462 36.429 393.635 36.1335C393.811 35.8352 394.057 35.6037 394.372 35.4389C394.69 35.2713 395.063 35.1875 395.489 35.1875C395.926 35.1875 396.303 35.2727 396.618 35.4432C396.933 35.6108 397.176 35.8338 397.347 36.1122C397.517 36.3878 397.602 36.6875 397.602 37.0114C397.602 37.429 397.499 37.7912 397.291 38.098C397.084 38.4048 396.801 38.6903 396.443 38.9545L394.705 40.25C394.313 40.5398 394.047 40.821 393.908 41.0938C393.768 41.3665 393.699 41.5625 393.699 41.6818C393.699 41.9545 393.77 42.2088 393.912 42.4446C394.054 42.6804 394.254 42.8707 394.513 43.0156C394.771 43.1605 395.074 43.233 395.42 43.233C395.75 43.233 396.071 43.1634 396.384 43.0241C396.696 42.8821 396.979 42.6776 397.232 42.4105C397.487 42.1435 397.689 41.8224 397.837 41.4474C397.987 41.0724 398.062 40.6506 398.062 40.1818H399.034C399.034 40.7614 398.967 41.2344 398.834 41.6009C398.7 41.9673 398.55 42.2543 398.382 42.4616C398.214 42.669 398.08 42.8239 397.977 42.9261C397.943 42.9687 397.912 43.0114 397.884 43.054C397.855 43.0966 397.824 43.1392 397.79 43.1818C397.509 43.4972 397.153 43.733 396.724 43.8892C396.295 44.0426 395.872 44.1193 395.455 44.1193ZM407.784 39.1676V40.1051H403.966V39.1676H407.784ZM412.344 44.1193C411.782 44.1193 411.281 44.0227 410.84 43.8295C410.403 43.6364 410.055 43.3679 409.796 43.0241C409.54 42.6776 409.401 42.2756 409.379 41.8182H410.452C410.475 42.0994 410.572 42.3423 410.742 42.5469C410.913 42.7486 411.136 42.9048 411.411 43.0156C411.687 43.1264 411.992 43.1818 412.327 43.1818C412.702 43.1818 413.035 43.1165 413.325 42.9858C413.614 42.8551 413.842 42.6733 414.006 42.4403C414.171 42.2074 414.254 41.9375 414.254 41.6307C414.254 41.3097 414.174 41.027 414.015 40.7827C413.856 40.5355 413.623 40.3423 413.316 40.2031C413.009 40.0639 412.634 39.9943 412.191 39.9943H411.492V39.0568H412.191C412.538 39.0568 412.842 38.9943 413.103 38.8693C413.367 38.7443 413.573 38.5682 413.721 38.3409C413.871 38.1136 413.947 37.8466 413.947 37.5398C413.947 37.2443 413.881 36.9872 413.751 36.7685C413.62 36.5497 413.435 36.3793 413.197 36.2571C412.961 36.1349 412.683 36.0739 412.362 36.0739C412.06 36.0739 411.776 36.1293 411.509 36.2401C411.245 36.348 411.029 36.5057 410.862 36.7131C410.694 36.9176 410.603 37.1648 410.589 37.4545H409.566C409.583 36.9972 409.721 36.5966 409.979 36.2528C410.238 35.9062 410.576 35.6364 410.994 35.4432C411.414 35.25 411.876 35.1534 412.379 35.1534C412.918 35.1534 413.381 35.2628 413.768 35.4815C414.154 35.6974 414.451 35.983 414.658 36.3381C414.866 36.6932 414.969 37.0767 414.969 37.4886C414.969 37.9801 414.84 38.3991 414.582 38.7457C414.326 39.0923 413.978 39.3324 413.538 39.4659V39.5341C414.089 39.625 414.519 39.8594 414.829 40.2372C415.138 40.6122 415.293 41.0767 415.293 41.6307C415.293 42.1051 415.164 42.5312 414.906 42.9091C414.65 43.2841 414.3 43.5795 413.857 43.7955C413.414 44.0114 412.91 44.1193 412.344 44.1193ZM421.962 37.4545C421.911 37.0227 421.704 36.6875 421.34 36.4489C420.977 36.2102 420.531 36.0909 420.002 36.0909C419.616 36.0909 419.278 36.1534 418.988 36.2784C418.701 36.4034 418.477 36.5753 418.315 36.794C418.156 37.0128 418.076 37.2614 418.076 37.5398C418.076 37.7727 418.131 37.973 418.242 38.1406C418.356 38.3054 418.501 38.4432 418.677 38.554C418.853 38.6619 419.038 38.7514 419.231 38.8224C419.424 38.8906 419.602 38.946 419.763 38.9886L420.65 39.2273C420.877 39.2869 421.13 39.3693 421.408 39.4744C421.69 39.5795 421.958 39.723 422.214 39.9048C422.472 40.0838 422.685 40.3139 422.853 40.5952C423.021 40.8764 423.104 41.2216 423.104 41.6307C423.104 42.1023 422.981 42.5284 422.734 42.9091C422.489 43.2898 422.131 43.5923 421.66 43.8168C421.191 44.0412 420.621 44.1534 419.951 44.1534C419.326 44.1534 418.785 44.0526 418.327 43.8509C417.873 43.6491 417.515 43.3679 417.254 43.0071C416.995 42.6463 416.849 42.2273 416.815 41.75H417.906C417.934 42.0795 418.045 42.3523 418.238 42.5682C418.434 42.7812 418.681 42.9403 418.979 43.0455C419.281 43.1477 419.604 43.1989 419.951 43.1989C420.354 43.1989 420.717 43.1335 421.038 43.0028C421.359 42.8693 421.613 42.6847 421.8 42.4489C421.988 42.2102 422.082 41.9318 422.082 41.6136C422.082 41.3239 422.001 41.0881 421.839 40.9062C421.677 40.7244 421.464 40.5767 421.2 40.4631C420.935 40.3494 420.65 40.25 420.343 40.1648L419.269 39.858C418.587 39.6619 418.048 39.3821 417.65 39.0185C417.252 38.6548 417.053 38.179 417.053 37.5909C417.053 37.1023 417.185 36.6761 417.45 36.3125C417.717 35.946 418.075 35.6619 418.523 35.4602C418.975 35.2557 419.479 35.1534 420.036 35.1534C420.599 35.1534 421.099 35.2543 421.536 35.456C421.974 35.6548 422.32 35.9276 422.576 36.2741C422.835 36.6207 422.971 37.0142 422.985 37.4545H421.962ZM427.535 44H424.842V35.2727H427.654C428.501 35.2727 429.225 35.4474 429.828 35.7969C430.43 36.1435 430.892 36.642 431.213 37.2926C431.534 37.9403 431.694 38.7159 431.694 39.6193C431.694 40.5284 431.532 41.3111 431.208 41.9673C430.885 42.6207 430.413 43.1236 429.794 43.4759C429.174 43.8253 428.422 44 427.535 44ZM425.899 43.0625H427.467C428.189 43.0625 428.787 42.9233 429.261 42.6449C429.735 42.3665 430.089 41.9702 430.322 41.456C430.555 40.9418 430.672 40.3295 430.672 39.6193C430.672 38.9148 430.556 38.3082 430.326 37.7997C430.096 37.2884 429.752 36.8963 429.295 36.6236C428.838 36.348 428.268 36.2102 427.586 36.2102H425.899V43.0625Z" fill="black"/>
<path d="M87.8295 73.4545C87.7784 73.0227 87.571 72.6875 87.2074 72.4489C86.8438 72.2102 86.3977 72.0909 85.8693 72.0909C85.483 72.0909 85.1449 72.1534 84.8551 72.2784C84.5682 72.4034 84.3438 72.5753 84.1818 72.794C84.0227 73.0128 83.9432 73.2614 83.9432 73.5398C83.9432 73.7727 83.9986 73.973 84.1094 74.1406C84.223 74.3054 84.3679 74.4432 84.544 74.554C84.7202 74.6619 84.9048 74.7514 85.098 74.8224C85.2912 74.8906 85.4688 74.946 85.6307 74.9886L86.517 75.2273C86.7443 75.2869 86.9972 75.3693 87.2756 75.4744C87.5568 75.5795 87.8253 75.723 88.081 75.9048C88.3395 76.0838 88.5526 76.3139 88.7202 76.5952C88.8878 76.8764 88.9716 77.2216 88.9716 77.6307C88.9716 78.1023 88.848 78.5284 88.6009 78.9091C88.3565 79.2898 87.9986 79.5923 87.527 79.8168C87.0582 80.0412 86.4886 80.1534 85.8182 80.1534C85.1932 80.1534 84.652 80.0526 84.1946 79.8509C83.7401 79.6491 83.3821 79.3679 83.1207 79.0071C82.8622 78.6463 82.7159 78.2273 82.6818 77.75H83.7727C83.8011 78.0795 83.9119 78.3523 84.1051 78.5682C84.3011 78.7812 84.5483 78.9403 84.8466 79.0455C85.1477 79.1477 85.4716 79.1989 85.8182 79.1989C86.2216 79.1989 86.5838 79.1335 86.9048 79.0028C87.2259 78.8693 87.4801 78.6847 87.6676 78.4489C87.8551 78.2102 87.9489 77.9318 87.9489 77.6136C87.9489 77.3239 87.8679 77.0881 87.706 76.9062C87.544 76.7244 87.331 76.5767 87.0668 76.4631C86.8026 76.3494 86.517 76.25 86.2102 76.1648L85.1364 75.858C84.4545 75.6619 83.9148 75.3821 83.517 75.0185C83.1193 74.6548 82.9205 74.179 82.9205 73.5909C82.9205 73.1023 83.0526 72.6761 83.3168 72.3125C83.5838 71.946 83.9418 71.6619 84.3906 71.4602C84.8423 71.2557 85.3466 71.1534 85.9034 71.1534C86.4659 71.1534 86.9659 71.2543 87.4034 71.456C87.8409 71.6548 88.1875 71.9276 88.4432 72.2741C88.7017 72.6207 88.8381 73.0142 88.8523 73.4545H87.8295ZM93.4023 80H90.7092V71.2727H93.5217C94.3683 71.2727 95.0927 71.4474 95.695 71.7969C96.2972 72.1435 96.7589 72.642 97.0799 73.2926C97.4009 73.9403 97.5614 74.7159 97.5614 75.6193C97.5614 76.5284 97.3995 77.3111 97.0756 77.9673C96.7518 78.6207 96.2802 79.1236 95.6609 79.4759C95.0415 79.8253 94.2887 80 93.4023 80ZM91.766 79.0625H93.3342C94.0558 79.0625 94.6538 78.9233 95.1282 78.6449C95.6026 78.3665 95.9563 77.9702 96.1893 77.456C96.4222 76.9418 96.5387 76.3295 96.5387 75.6193C96.5387 74.9148 96.4237 74.3082 96.1935 73.7997C95.9634 73.2884 95.6197 72.8963 95.1623 72.6236C94.7049 72.348 94.1353 72.2102 93.4535 72.2102H91.766V79.0625ZM102.982 74.8352V73.9148H108.232V74.8352H102.982ZM102.982 77.358V76.4375H108.232V77.358H102.982ZM118.767 73.4545C118.716 73.0227 118.509 72.6875 118.145 72.4489C117.781 72.2102 117.335 72.0909 116.807 72.0909C116.42 72.0909 116.082 72.1534 115.793 72.2784C115.506 72.4034 115.281 72.5753 115.119 72.794C114.96 73.0128 114.881 73.2614 114.881 73.5398C114.881 73.7727 114.936 73.973 115.047 74.1406C115.161 74.3054 115.305 74.4432 115.482 74.554C115.658 74.6619 115.842 74.7514 116.036 74.8224C116.229 74.8906 116.406 74.946 116.568 74.9886L117.455 75.2273C117.682 75.2869 117.935 75.3693 118.213 75.4744C118.494 75.5795 118.763 75.723 119.018 75.9048C119.277 76.0838 119.49 76.3139 119.658 76.5952C119.825 76.8764 119.909 77.2216 119.909 77.6307C119.909 78.1023 119.786 78.5284 119.538 78.9091C119.294 79.2898 118.936 79.5923 118.464 79.8168C117.996 80.0412 117.426 80.1534 116.756 80.1534C116.131 80.1534 115.589 80.0526 115.132 79.8509C114.678 79.6491 114.32 79.3679 114.058 79.0071C113.8 78.6463 113.653 78.2273 113.619 77.75H114.71C114.739 78.0795 114.849 78.3523 115.043 78.5682C115.239 78.7812 115.486 78.9403 115.784 79.0455C116.085 79.1477 116.409 79.1989 116.756 79.1989C117.159 79.1989 117.521 79.1335 117.842 79.0028C118.163 78.8693 118.418 78.6847 118.605 78.4489C118.793 78.2102 118.886 77.9318 118.886 77.6136C118.886 77.3239 118.805 77.0881 118.643 76.9062C118.482 76.7244 118.268 76.5767 118.004 76.4631C117.74 76.3494 117.455 76.25 117.148 76.1648L116.074 75.858C115.392 75.6619 114.852 75.3821 114.455 75.0185C114.057 74.6548 113.858 74.179 113.858 73.5909C113.858 73.1023 113.99 72.6761 114.254 72.3125C114.521 71.946 114.879 71.6619 115.328 71.4602C115.78 71.2557 116.284 71.1534 116.841 71.1534C117.403 71.1534 117.903 71.2543 118.341 71.456C118.778 71.6548 119.125 71.9276 119.381 72.2741C119.639 72.6207 119.776 73.0142 119.79 73.4545H118.767ZM124.357 73.4545V74.3068H120.965V73.4545H124.357ZM121.953 71.8864H122.959V78.125C122.959 78.4091 123 78.6222 123.083 78.7642C123.168 78.9034 123.276 78.9972 123.407 79.0455C123.54 79.0909 123.681 79.1136 123.828 79.1136C123.939 79.1136 124.03 79.108 124.101 79.0966C124.172 79.0824 124.229 79.071 124.272 79.0625L124.476 79.9659C124.408 79.9915 124.313 80.017 124.191 80.0426C124.069 80.071 123.914 80.0852 123.726 80.0852C123.442 80.0852 123.164 80.0241 122.891 79.902C122.621 79.7798 122.397 79.5938 122.218 79.3438C122.042 79.0938 121.953 78.7784 121.953 78.3977V71.8864ZM127.796 80.1534C127.381 80.1534 127.005 80.0753 126.667 79.919C126.328 79.7599 126.06 79.5312 125.861 79.233C125.662 78.9318 125.563 78.5682 125.563 78.142C125.563 77.767 125.637 77.4631 125.784 77.2301C125.932 76.9943 126.13 76.8097 126.377 76.6761C126.624 76.5426 126.897 76.4432 127.195 76.3778C127.496 76.3097 127.799 76.2557 128.103 76.2159C128.5 76.1648 128.823 76.1264 129.07 76.1009C129.32 76.0724 129.502 76.0256 129.615 75.9602C129.732 75.8949 129.79 75.7812 129.79 75.6193V75.5852C129.79 75.1648 129.675 74.8381 129.445 74.6051C129.218 74.3722 128.873 74.2557 128.409 74.2557C127.929 74.2557 127.553 74.3608 127.28 74.571C127.007 74.7812 126.816 75.0057 126.705 75.2443L125.75 74.9034C125.921 74.5057 126.148 74.196 126.432 73.9744C126.719 73.75 127.032 73.5937 127.37 73.5057C127.711 73.4148 128.046 73.3693 128.375 73.3693C128.586 73.3693 128.827 73.3949 129.1 73.446C129.375 73.4943 129.641 73.5952 129.897 73.7486C130.155 73.902 130.37 74.1335 130.54 74.4432C130.711 74.7528 130.796 75.1676 130.796 75.6875V80H129.79V79.1136H129.739C129.671 79.2557 129.557 79.4077 129.398 79.5696C129.239 79.7315 129.027 79.8693 128.763 79.983C128.499 80.0966 128.176 80.1534 127.796 80.1534ZM127.949 79.25C128.347 79.25 128.682 79.1719 128.955 79.0156C129.23 78.8594 129.438 78.6577 129.577 78.4105C129.719 78.1634 129.79 77.9034 129.79 77.6307V76.7102C129.748 76.7614 129.654 76.8082 129.509 76.8509C129.367 76.8906 129.202 76.9261 129.015 76.9574C128.83 76.9858 128.65 77.0114 128.473 77.0341C128.3 77.054 128.159 77.071 128.051 77.0852C127.79 77.1193 127.546 77.1747 127.319 77.2514C127.094 77.3253 126.912 77.4375 126.773 77.5881C126.637 77.7358 126.569 77.9375 126.569 78.1932C126.569 78.5426 126.698 78.8068 126.956 78.9858C127.218 79.1619 127.549 79.25 127.949 79.25ZM133.637 76.0625V80H132.631V73.4545H133.603V74.4773H133.688C133.842 74.1449 134.075 73.8778 134.387 73.6761C134.7 73.4716 135.103 73.3693 135.597 73.3693C136.04 73.3693 136.428 73.4602 136.761 73.642C137.093 73.821 137.352 74.0938 137.536 74.4602C137.721 74.8239 137.813 75.2841 137.813 75.8409V80H136.808V75.9091C136.808 75.3949 136.674 74.9943 136.407 74.7074C136.14 74.4176 135.773 74.2727 135.308 74.2727C134.987 74.2727 134.7 74.3423 134.447 74.4815C134.197 74.6207 133.999 74.8239 133.854 75.0909C133.71 75.358 133.637 75.6818 133.637 76.0625ZM142.123 80.1364C141.577 80.1364 141.096 79.9986 140.678 79.723C140.26 79.4446 139.934 79.0526 139.698 78.5469C139.462 78.0384 139.344 77.4375 139.344 76.7443C139.344 76.0568 139.462 75.4602 139.698 74.9545C139.934 74.4489 140.262 74.0582 140.682 73.7827C141.103 73.5071 141.588 73.3693 142.14 73.3693C142.566 73.3693 142.902 73.4403 143.15 73.5824C143.4 73.7216 143.59 73.8807 143.721 74.0597C143.854 74.2358 143.958 74.3807 144.032 74.4943H144.117V71.2727H145.123V80H144.151V78.9943H144.032C143.958 79.1136 143.853 79.2642 143.716 79.446C143.58 79.625 143.385 79.7855 143.132 79.9276C142.88 80.0668 142.543 80.1364 142.123 80.1364ZM142.259 79.233C142.662 79.233 143.003 79.1278 143.282 78.9176C143.56 78.7045 143.772 78.4105 143.917 78.0355C144.061 77.6577 144.134 77.2216 144.134 76.7273C144.134 76.2386 144.063 75.8111 143.921 75.4446C143.779 75.0753 143.569 74.7884 143.29 74.5838C143.012 74.3764 142.668 74.2727 142.259 74.2727C141.833 74.2727 141.478 74.3821 141.194 74.6009C140.912 74.8168 140.701 75.1108 140.559 75.483C140.419 75.8523 140.35 76.267 140.35 76.7273C140.35 77.1932 140.421 77.6165 140.563 77.9972C140.708 78.375 140.921 78.6761 141.202 78.9006C141.486 79.1222 141.838 79.233 142.259 79.233ZM149.03 80.1534C148.615 80.1534 148.239 80.0753 147.901 79.919C147.563 79.7599 147.294 79.5312 147.096 79.233C146.897 78.9318 146.797 78.5682 146.797 78.142C146.797 77.767 146.871 77.4631 147.019 77.2301C147.167 76.9943 147.364 76.8097 147.611 76.6761C147.858 76.5426 148.131 76.4432 148.429 76.3778C148.73 76.3097 149.033 76.2557 149.337 76.2159C149.735 76.1648 150.057 76.1264 150.304 76.1009C150.554 76.0724 150.736 76.0256 150.85 75.9602C150.966 75.8949 151.025 75.7812 151.025 75.6193V75.5852C151.025 75.1648 150.909 74.8381 150.679 74.6051C150.452 74.3722 150.107 74.2557 149.644 74.2557C149.164 74.2557 148.787 74.3608 148.515 74.571C148.242 74.7812 148.05 75.0057 147.939 75.2443L146.985 74.9034C147.155 74.5057 147.382 74.196 147.667 73.9744C147.953 73.75 148.266 73.5937 148.604 73.5057C148.945 73.4148 149.28 73.3693 149.61 73.3693C149.82 73.3693 150.061 73.3949 150.334 73.446C150.61 73.4943 150.875 73.5952 151.131 73.7486C151.39 73.902 151.604 74.1335 151.775 74.4432C151.945 74.7528 152.03 75.1676 152.03 75.6875V80H151.025V79.1136H150.973C150.905 79.2557 150.792 79.4077 150.632 79.5696C150.473 79.7315 150.262 79.8693 149.998 79.983C149.733 80.0966 149.411 80.1534 149.03 80.1534ZM149.184 79.25C149.581 79.25 149.917 79.1719 150.189 79.0156C150.465 78.8594 150.672 78.6577 150.811 78.4105C150.953 78.1634 151.025 77.9034 151.025 77.6307V76.7102C150.982 76.7614 150.888 76.8082 150.743 76.8509C150.601 76.8906 150.436 76.9261 150.249 76.9574C150.064 76.9858 149.884 77.0114 149.708 77.0341C149.534 77.054 149.394 77.071 149.286 77.0852C149.025 77.1193 148.78 77.1747 148.553 77.2514C148.328 77.3253 148.147 77.4375 148.007 77.5881C147.871 77.7358 147.803 77.9375 147.803 78.1932C147.803 78.5426 147.932 78.8068 148.191 78.9858C148.452 79.1619 148.783 79.25 149.184 79.25ZM153.866 80V73.4545H154.837V74.4432H154.906C155.025 74.1193 155.241 73.8565 155.553 73.6548C155.866 73.4531 156.218 73.3523 156.61 73.3523C156.684 73.3523 156.776 73.3537 156.887 73.3565C156.998 73.3594 157.082 73.3636 157.138 73.3693V74.392C157.104 74.3835 157.026 74.3707 156.904 74.3537C156.785 74.3338 156.658 74.3239 156.525 74.3239C156.207 74.3239 155.923 74.3906 155.673 74.5241C155.425 74.6548 155.229 74.8366 155.085 75.0696C154.942 75.2997 154.871 75.5625 154.871 75.858V80H153.866ZM164.535 80H161.842V71.2727H164.654C165.501 71.2727 166.225 71.4474 166.828 71.7969C167.43 72.1435 167.892 72.642 168.213 73.2926C168.534 73.9403 168.694 74.7159 168.694 75.6193C168.694 76.5284 168.532 77.3111 168.208 77.9673C167.885 78.6207 167.413 79.1236 166.794 79.4759C166.174 79.8253 165.422 80 164.535 80ZM162.899 79.0625H164.467C165.189 79.0625 165.787 78.9233 166.261 78.6449C166.735 78.3665 167.089 77.9702 167.322 77.456C167.555 76.9418 167.672 76.3295 167.672 75.6193C167.672 74.9148 167.556 74.3082 167.326 73.7997C167.096 73.2884 166.752 72.8963 166.295 72.6236C165.838 72.348 165.268 72.2102 164.586 72.2102H162.899V79.0625ZM173.075 80.1364C172.444 80.1364 171.9 79.9972 171.443 79.7188C170.988 79.4375 170.637 79.0455 170.39 78.5426C170.146 78.0369 170.024 77.4489 170.024 76.7784C170.024 76.108 170.146 75.517 170.39 75.0057C170.637 74.4915 170.981 74.0909 171.422 73.804C171.865 73.5142 172.382 73.3693 172.973 73.3693C173.314 73.3693 173.65 73.4261 173.983 73.5398C174.315 73.6534 174.618 73.8381 174.89 74.0938C175.163 74.3466 175.38 74.6818 175.542 75.0994C175.704 75.517 175.785 76.0312 175.785 76.642V77.0682H170.74V76.1989H174.762C174.762 75.8295 174.689 75.5 174.541 75.2102C174.396 74.9205 174.189 74.6918 173.919 74.5241C173.652 74.3565 173.336 74.2727 172.973 74.2727C172.572 74.2727 172.225 74.3722 171.933 74.571C171.643 74.767 171.42 75.0227 171.264 75.3381C171.108 75.6534 171.029 75.9915 171.029 76.3523V76.9318C171.029 77.4261 171.115 77.8452 171.285 78.1889C171.458 78.5298 171.699 78.7898 172.005 78.9688C172.312 79.1449 172.669 79.233 173.075 79.233C173.339 79.233 173.578 79.196 173.791 79.1222C174.007 79.0455 174.193 78.9318 174.349 78.7812C174.505 78.6278 174.626 78.4375 174.711 78.2102L175.683 78.483C175.581 78.8125 175.409 79.1023 175.167 79.3523C174.926 79.5994 174.627 79.7926 174.272 79.9318C173.917 80.0682 173.518 80.1364 173.075 80.1364ZM182.468 73.4545L180.048 80H179.025L176.604 73.4545H177.695L179.502 78.6705H179.57L181.377 73.4545H182.468ZM183.795 80V73.4545H184.801V80H183.795ZM184.307 72.3636C184.111 72.3636 183.942 72.2969 183.8 72.1634C183.661 72.0298 183.591 71.8693 183.591 71.6818C183.591 71.4943 183.661 71.3338 183.8 71.2003C183.942 71.0668 184.111 71 184.307 71C184.503 71 184.67 71.0668 184.81 71.2003C184.952 71.3338 185.023 71.4943 185.023 71.6818C185.023 71.8693 184.952 72.0298 184.81 72.1634C184.67 72.2969 184.503 72.3636 184.307 72.3636ZM188.569 80.1534C188.154 80.1534 187.778 80.0753 187.44 79.919C187.102 79.7599 186.833 79.5312 186.635 79.233C186.436 78.9318 186.336 78.5682 186.336 78.142C186.336 77.767 186.41 77.4631 186.558 77.2301C186.706 76.9943 186.903 76.8097 187.15 76.6761C187.397 76.5426 187.67 76.4432 187.968 76.3778C188.27 76.3097 188.572 76.2557 188.876 76.2159C189.274 76.1648 189.596 76.1264 189.843 76.1009C190.093 76.0724 190.275 76.0256 190.389 75.9602C190.505 75.8949 190.564 75.7812 190.564 75.6193V75.5852C190.564 75.1648 190.449 74.8381 190.218 74.6051C189.991 74.3722 189.646 74.2557 189.183 74.2557C188.703 74.2557 188.326 74.3608 188.054 74.571C187.781 74.7812 187.589 75.0057 187.478 75.2443L186.524 74.9034C186.694 74.5057 186.922 74.196 187.206 73.9744C187.493 73.75 187.805 73.5937 188.143 73.5057C188.484 73.4148 188.819 73.3693 189.149 73.3693C189.359 73.3693 189.6 73.3949 189.873 73.446C190.149 73.4943 190.414 73.5952 190.67 73.7486C190.929 73.902 191.143 74.1335 191.314 74.4432C191.484 74.7528 191.569 75.1676 191.569 75.6875V80H190.564V79.1136H190.512C190.444 79.2557 190.331 79.4077 190.172 79.5696C190.012 79.7315 189.801 79.8693 189.537 79.983C189.272 80.0966 188.95 80.1534 188.569 80.1534ZM188.723 79.25C189.12 79.25 189.456 79.1719 189.728 79.0156C190.004 78.8594 190.211 78.6577 190.35 78.4105C190.493 78.1634 190.564 77.9034 190.564 77.6307V76.7102C190.521 76.7614 190.427 76.8082 190.282 76.8509C190.14 76.8906 189.975 76.9261 189.788 76.9574C189.603 76.9858 189.423 77.0114 189.247 77.0341C189.074 77.054 188.933 77.071 188.825 77.0852C188.564 77.1193 188.319 77.1747 188.092 77.2514C187.868 77.3253 187.686 77.4375 187.547 77.5881C187.41 77.7358 187.342 77.9375 187.342 78.1932C187.342 78.5426 187.471 78.8068 187.73 78.9858C187.991 79.1619 188.322 79.25 188.723 79.25ZM198.041 74.9205L197.138 75.1761C197.081 75.0256 196.997 74.8793 196.886 74.7372C196.778 74.5923 196.631 74.473 196.443 74.3793C196.256 74.2855 196.016 74.2386 195.723 74.2386C195.322 74.2386 194.989 74.331 194.722 74.5156C194.457 74.6974 194.325 74.929 194.325 75.2102C194.325 75.4602 194.416 75.6577 194.598 75.8026C194.78 75.9474 195.064 76.0682 195.45 76.1648L196.422 76.4034C197.007 76.5455 197.443 76.7628 197.73 77.0554C198.017 77.3452 198.161 77.7187 198.161 78.1761C198.161 78.5511 198.053 78.8864 197.837 79.1818C197.624 79.4773 197.325 79.7102 196.942 79.8807C196.558 80.0511 196.112 80.1364 195.604 80.1364C194.936 80.1364 194.384 79.9915 193.946 79.7017C193.509 79.4119 193.232 78.9886 193.115 78.4318L194.07 78.1932C194.161 78.5455 194.332 78.8097 194.585 78.9858C194.841 79.1619 195.175 79.25 195.587 79.25C196.055 79.25 196.428 79.1506 196.703 78.9517C196.982 78.75 197.121 78.5085 197.121 78.2273C197.121 78 197.041 77.8097 196.882 77.6562C196.723 77.5 196.479 77.3835 196.149 77.3068L195.058 77.0511C194.459 76.9091 194.018 76.6889 193.737 76.3906C193.459 76.0895 193.32 75.7131 193.32 75.2614C193.32 74.892 193.423 74.5653 193.631 74.2812C193.841 73.9972 194.126 73.7741 194.487 73.6122C194.851 73.4503 195.263 73.3693 195.723 73.3693C196.371 73.3693 196.879 73.5114 197.249 73.7955C197.621 74.0795 197.885 74.4545 198.041 74.9205ZM199.674 80V73.4545H200.68V80H199.674ZM200.186 72.3636C199.99 72.3636 199.821 72.2969 199.679 72.1634C199.539 72.0298 199.47 71.8693 199.47 71.6818C199.47 71.4943 199.539 71.3338 199.679 71.2003C199.821 71.0668 199.99 71 200.186 71C200.382 71 200.549 71.0668 200.689 71.2003C200.831 71.3338 200.902 71.4943 200.902 71.6818C200.902 71.8693 200.831 72.0298 200.689 72.1634C200.549 72.2969 200.382 72.3636 200.186 72.3636Z" fill="black"/>
<path d="M185 28H213V54H185V28Z" fill="#FF0000"/>
<path d="M185.5 28.5H212.5V53.5H185.5V28.5Z" stroke="black" stroke-opacity="0.8"/>
<rect x="321" y="28" width="28" height="26" fill="#040300"/>
<rect x="321.5" y="28.5" width="27" height="25" stroke="black" stroke-opacity="0.8"/>
</svg>
